<?xml version="1.0" encoding="utf-8"?>
<!-- Generator: Adobe Illustrator 25.0.0, SVG Export Plug-In . SVG Version: 6.00 Build 0)  -->
<svg version="1.1" id="Layer_1" xmlns="http://www.w3.org/2000/svg" xmlns:xlink="http://www.w3.org/1999/xlink" x="0px" y="0px"
	 viewBox="0 0 700 700" style="enable-background:new 0 0 700 700;" xml:space="preserve">
<path d="M505.1,141.1c6.6,6.4,10.8,14.3,12.7,22.7c2.1-1.5,4.2-2.8,6.5-4c5.4-10.8,3.7-24.2-5.4-33c-11.2-10.9-29.1-10.7-40,0.5
	l-1.2,1.2C488,129.6,497.6,133.8,505.1,141.1L505.1,141.1z"/>
<path d="M343.8,219.7c2.3,5,3.8,10.8,4.4,17.1l92.3-94.8c3.5-3.6,7.6-6.4,12-8.7c5.6-10.8,4-24.5-5.2-33.4
	c-11.2-10.9-29.2-10.6-40.1,0.6l-86.8,89.2C333.4,202.4,337.8,206.7,343.8,219.7L343.8,219.7z"/>
<path d="M126.2,442.1c-0.7-49.6,18-96.5,52.6-132.1l103.9-106.8c4.1-11.4,2.8-22.8-0.4-29.8c-4.7-10.2-7.4-12.7-19.9-24.9
	L145.6,268.6c-59.1,60.7-63,154.7-12.7,220C128.9,473.6,126.4,458,126.2,442.1L126.2,442.1z"/>
<path d="M191.4,322.1l116.9-120.1c12.5,12.2,15.2,14.8,19.9,24.9c4.7,10.2,5.6,30-9,45.1l-66.3,68.6c-2.6,2.6-2.5,6.9,0.2,9.5
	c2.6,2.6,6.9,2.5,9.4-0.1l190.7-195.9c10.9-11.2,28.9-11.5,40.1-0.6c11.2,10.9,11.4,28.9,0.5,40.1L355.5,335.4
	c-2.5,2.6-2.4,6.9,0.2,9.5c2.7,2.6,6.9,2.6,9.5-0.1l159.5-164c10.9-11.2,28.9-11.4,40-0.5c11.2,10.9,11.5,28.8,0.5,40L405.7,384.3
	c-2.5,2.6-2.5,6.8,0.2,9.5c2.6,2.6,6.9,2.5,9.4-0.1l138.1-141.9c10.9-11.2,28.8-11.5,40-0.6c11.2,10.9,11.4,29,0.6,40.2L455.8,433.1
	c-2.5,2.6-2.5,6.8,0.2,9.5c2.6,2.6,6.9,2.5,9.4-0.1l81.5-83.8c11-11.3,28.9-11.4,40.1-0.6c11.3,11,11.5,28.9,0.5,40.1l-154.7,159
	c-64.8,66.6-171.6,68.1-238.2,3.2C128,495.4,126.6,388.7,191.4,322.1"/>
</svg>
